<?xml version="1.0" standalone="no"?>
<svg viewBox="0 0 1024 768" version="1.1" xmlns="http://www.w3.org/2000/svg" stroke-linecap="round" stroke-linejoin="round" fill-rule="evenodd" xml:space="preserve" >
<defs >
<clipPath id="clipId0" >
<path d="M0,768 1024,768 1024,0 0,0 z" />
</clipPath>
</defs>
<g stroke-width="0.1" clip-path="url(#clipId0)" fill="none" stroke="rgb(0,0,0)" />
<g stroke-width="0.25" clip-path="url(#clipId0)" fill="none" stroke="rgb(0,0,0)" >
<polyline points="378.522,74.0483 187.02,74.0483 " />
<polyline points="187.02,74.0483 187.02,522.673 " />
<polyline points="378.522,109.61 187.02,109.61 " />
<polyline points="240.553,109.61 240.553,522.673 " />
<polyline points="275.481,109.61 275.481,245.327 " />
<polyline points="344.059,109.61 344.059,245.327 " />
<polyline points="240.553,144.001 378.522,144.001 " />
<polyline points="240.553,212.153 378.522,212.153 " />
<polyline points="240.553,144.001 275.481,177.468 " />
<polyline points="275.481,177.468 240.553,212.153 " />
<polyline points="378.522,144.001 344.059,177.468 " />
<polyline points="344.059,177.468 378.522,212.153 " />
<polyline points="275.481,109.61 309.537,144.001 " />
<polyline points="309.537,144.001 344.059,109.61 " />
<polyline points="275.481,245.327 309.537,212.153 " />
<polyline points="309.537,212.153 344.059,245.327 " />
<polyline points="240.553,191.57 187.02,191.57 " />
<polyline points="309.464,74.0483 309.464,109.61 " />
<polyline points="187.02,245.327 378.522,245.327 " />
<polyline points="378.522,245.327 378.522,74.0483 " />
<polyline points="378.522,74.0483 836.98,74.0483 " />
<polyline points="378.522,109.61 836.98,109.61 " />
<polyline points="783.447,144.001 645.478,144.001 " />
<polyline points="783.447,212.153 645.478,212.153 " />
<polyline points="645.478,144.001 679.941,177.468 " />
<polyline points="679.941,177.468 645.478,212.153 " />
<polyline points="836.98,245.327 645.478,245.327 " />
<polyline points="836.98,74.0483 836.98,522.673 " />
<polyline points="783.447,109.61 783.447,522.673 " />
<polyline points="748.519,109.61 748.519,245.327 " />
<polyline points="679.941,109.61 679.941,245.327 " />
<polyline points="783.447,144.001 748.519,177.468 " />
<polyline points="748.519,177.468 783.447,212.153 " />
<polyline points="748.519,109.61 714.463,144.001 " />
<polyline points="714.463,144.001 679.941,109.61 " />
<polyline points="748.519,245.327 714.463,212.153 " />
<polyline points="714.463,212.153 679.941,245.327 " />
<polyline points="783.447,191.57 836.98,191.57 " />
<polyline points="714.536,74.0483 714.536,109.61 " />
<polyline points="645.478,245.327 645.478,74.0483 " />
<polyline points="378.522,693.952 187.02,693.952 " />
<polyline points="378.522,658.39 187.02,658.39 " />
<polyline points="240.553,623.999 378.522,623.999 " />
<polyline points="240.553,555.847 378.522,555.847 " />
<polyline points="378.522,623.999 344.059,590.532 " />
<polyline points="344.059,590.532 378.522,555.847 " />
<polyline points="187.02,522.673 378.522,522.673 " />
<polyline points="187.02,693.952 187.02,522.673 " />
<polyline points="240.553,658.39 240.553,522.673 " />
<polyline points="275.481,658.39 275.481,522.673 " />
<polyline points="344.059,658.39 344.059,522.673 " />
<polyline points="240.553,623.999 275.481,590.532 " />
<polyline points="275.481,590.532 240.553,555.847 " />
<polyline points="275.481,658.39 309.537,623.999 " />
<polyline points="309.537,623.999 344.059,658.39 " />
<polyline points="275.481,522.673 309.537,555.847 " />
<polyline points="309.537,555.847 344.059,522.673 " />
<polyline points="240.553,576.43 187.02,576.43 " />
<polyline points="309.464,693.952 309.464,658.39 " />
<polyline points="378.522,522.673 378.522,693.952 " />
<polyline points="378.522,693.952 836.98,693.952 " />
<polyline points="378.522,658.39 836.98,658.39 " />
<polyline points="783.447,623.999 645.478,623.999 " />
<polyline points="783.447,555.847 645.478,555.847 " />
<polyline points="645.478,623.999 679.941,590.532 " />
<polyline points="679.941,590.532 645.478,555.847 " />
<polyline points="836.98,522.673 645.478,522.673 " />
<polyline points="836.98,693.952 836.98,522.673 " />
<polyline points="783.447,658.39 783.447,522.673 " />
<polyline points="748.519,658.39 748.519,522.673 " />
<polyline points="679.941,658.39 679.941,522.673 " />
<polyline points="783.447,623.999 748.519,590.532 " />
<polyline points="748.519,590.532 783.447,555.847 " />
<polyline points="748.519,658.39 714.463,623.999 " />
<polyline points="714.463,623.999 679.941,658.39 " />
<polyline points="748.519,522.673 714.463,555.847 " />
<polyline points="714.463,555.847 679.941,522.673 " />
<polyline points="783.447,576.43 836.98,576.43 " />
<polyline points="714.536,693.952 714.536,658.39 " />
<polyline points="645.478,522.673 645.478,693.952 " />
<polyline points="378.522,245.327 650.031,245.327 " />
<polyline points="645.478,245.327 645.478,384 " />
<polyline points="378.522,245.327 378.522,384 " />
<polyline points="240.553,245.327 378.522,384 " />
<polyline points="650.031,245.327 788.079,245.327 " />
<polyline points="783.447,245.327 645.478,384 " />
<polyline points="446.848,245.327 446.848,384 " />
<polyline points="579.921,245.327 579.921,384 " />
<polyline points="446.848,384 378.522,314.663 " />
<polyline points="378.522,314.663 645.478,314.663 " />
<polyline points="645.478,314.663 579.921,384 " />
<polyline points="446.848,245.327 514.277,314.663 " />
<polyline points="514.277,314.663 579.921,245.327 " />
<polyline points="240.553,522.673 378.522,384 " />
<polyline points="378.522,522.673 650.031,522.673 " />
<polyline points="378.522,522.673 378.522,384 " />
<polyline points="650.031,522.673 788.079,522.673 " />
<polyline points="446.848,522.673 446.848,384 " />
<polyline points="579.921,522.673 579.921,384 " />
<polyline points="446.848,384 378.522,453.337 " />
<polyline points="446.848,522.673 514.277,453.337 " />
<polyline points="514.277,453.337 579.921,522.673 " />
<polyline points="783.447,522.673 645.478,384 " />
<polyline points="645.478,522.673 645.478,384 " />
<polyline points="378.522,453.337 645.478,453.337 " />
<polyline points="645.478,453.337 579.921,384 " />
<polyline points="378.522,109.61 512,245.327 " />
<polyline points="512,245.327 645.478,109.61 " />
<polyline points="378.522,658.39 514.277,522.673 " />
<polyline points="514.277,522.673 645.478,658.39 " />
<polyline points="187.02,302.041 240.553,302.041 " />
<polyline points="783.447,302.041 836.98,302.041 " />
<polyline points="187.02,465.959 240.553,465.959 " />
<polyline points="783.447,465.959 836.98,465.959 " />
</g>
</svg>
